<svg width="12" height="12" viewBox="0 0 12 12" fill="none" xmlns="http://www.w3.org/2000/svg">
<g clip-path="url(#clip0_30_838)">
<path d="M8.94022 11.2502C8.86685 11.2505 8.79525 11.2259 8.73563 11.1799L5.93345 8.99455L3.13127 11.1799C3.0714 11.2266 2.99928 11.2516 2.92532 11.2513C2.85137 11.251 2.77942 11.2254 2.71987 11.1783C2.66032 11.1311 2.61626 11.0648 2.59406 10.9889C2.57186 10.913 2.57267 10.8315 2.59637 10.7561L3.68927 7.274L0.856802 5.18455C0.795448 5.13934 0.749143 5.07421 0.72465 4.99868C0.700157 4.92315 0.698761 4.84117 0.720666 4.76472C0.74257 4.68827 0.786627 4.62136 0.8464 4.57377C0.906173 4.52617 0.978528 4.50038 1.0529 4.50017H4.54729L5.60183 1.00916C5.62455 0.933789 5.66888 0.868096 5.72845 0.821505C5.78803 0.774913 5.85979 0.749817 5.93345 0.749817C6.00711 0.749817 6.07887 0.774913 6.13845 0.821505C6.19802 0.868096 6.24235 0.933789 6.26507 1.00916L7.31962 4.50135H10.814C10.8885 4.50131 10.961 4.52691 11.0209 4.57442C11.0809 4.62192 11.1251 4.68883 11.1472 4.76533C11.1692 4.84184 11.1679 4.92393 11.1434 4.99957C11.119 5.07522 11.0726 5.14046 11.0112 5.18572L8.17763 7.274L9.26988 10.7552C9.28757 10.8115 9.29255 10.8716 9.2844 10.9305C9.27625 10.9893 9.2552 11.0452 9.22299 11.0936C9.19079 11.1419 9.14835 11.1813 9.09918 11.2086C9.05001 11.2358 8.99552 11.2501 8.94022 11.2502Z" fill="#FFAD30"/>
</g>
<defs>
<clipPath id="clip0_30_838">
<rect width="11.1556" height="12" fill="white" transform="translate(0.355591)"/>
</clipPath>
</defs>
</svg>
